<?xml version="1.0" encoding="UTF-8" standalone="no"?>
<!-- Generator: Adobe Illustrator 16.2.1, SVG Export Plug-In . SVG Version: 6.00 Build 0)  -->

<svg
   xmlns:dc="http://purl.org/dc/elements/1.1/"
   xmlns:cc="http://creativecommons.org/ns#"
   xmlns:rdf="http://www.w3.org/1999/02/22-rdf-syntax-ns#"
   xmlns:svg="http://www.w3.org/2000/svg"
   xmlns="http://www.w3.org/2000/svg"
   xmlns:sodipodi="http://sodipodi.sourceforge.net/DTD/sodipodi-0.dtd"
   xmlns:inkscape="http://www.inkscape.org/namespaces/inkscape"
   version="1.1"
   id="Layer_1"
   x="0px"
   y="0px"
   width="110.231"
   height="112.10835"
   viewBox="0 0 110.231 112.10835"
   enable-background="new 0 0 540 720"
   xml:space="preserve"
   sodipodi:docname="blueberry_logo.svg"
   inkscape:version="0.92.4 (5da689c313, 2019-01-14)"><metadata
   id="metadata39"><rdf:RDF><cc:Work
       rdf:about=""><dc:format>image/svg+xml</dc:format><dc:type
         rdf:resource="http://purl.org/dc/dcmitype/StillImage" /></cc:Work></rdf:RDF></metadata><defs
   id="defs37" /><sodipodi:namedview
   pagecolor="#ffffff"
   bordercolor="#666666"
   borderopacity="1"
   objecttolerance="10"
   gridtolerance="10"
   guidetolerance="10"
   inkscape:pageopacity="0"
   inkscape:pageshadow="2"
   inkscape:window-width="533"
   inkscape:window-height="461"
   id="namedview35"
   showgrid="false"
   inkscape:zoom="0.32777778"
   inkscape:cx="72.692496"
   inkscape:cy="-173.0155"
   inkscape:window-x="0"
   inkscape:window-y="27"
   inkscape:window-maximized="0"
   inkscape:current-layer="Layer_1" />
<ellipse
   stroke-miterlimit="10"
   cx="55.115501"
   cy="62.561852"
   rx="54.236"
   ry="48.667"
   id="ellipse2"
   style="fill:#58595b;stroke:#231f20;stroke-width:1.75899994;stroke-miterlimit:10" />
<path
   d="m 103.4865,62.267848 c 0,23.155 -21.654004,41.924002 -48.371004,41.924002 -26.718,0 -48.3720001,-18.769002 -48.3720001,-41.924002 0,-23.151 21.6540001,-41.924 48.3720001,-41.924 26.717,0 48.371004,18.772 48.371004,41.924 z"
   id="path4"
   inkscape:connector-curvature="0"
   style="fill:#231f20" />
<path
   stroke-miterlimit="10"
   d="m 29.122496,82.730848 c 4.71,2.997 10.073,7.521 15.607,10.273 16.427,8.169002 44.747,2.352 41.7,-8.979 -1.557,-5.768 -9.891,-11.001 -19.149,-13.182 0.654,-1.856 1.856,-3.348 3.188,-5.007 1.061,-1.314 2.157,-2.673 3.076,-4.338 2.629,-4.724 1.65,-10.444 -2.622,-15.307 -1.928,-2.187 -4.392,-3.359 -6.784,-4.491 -2.328,-1.105 -4.532,-2.148 -5.858,-4.043 -2.157,-3.08 -1.769,-7.19 -1.356,-11.543 0.225,-2.334 0.46,-4.748 0.236,-6.967 l -3.501,0.348 c 0.188,1.877 -0.018,4.02 -0.236,6.286 -0.436,4.571 -0.931,9.754 1.975,13.895 1.863,2.655 4.592,3.952 7.238,5.204 2.163,1.023 4.202,1.989 5.641,3.634 1.562,1.774 4.892,6.424 2.198,11.275 -0.778,1.403 -1.732,2.585 -2.741,3.84 -1.544,1.916 -3.111,3.893 -3.925,6.563 -4.268,-0.628 -8.57,-0.578 -12.365,0.424 l -8.446,4.523"
   id="path6"
   inkscape:connector-curvature="0"
   style="fill:#ffffff;stroke:#231f20;stroke-width:0.87949997;stroke-miterlimit:10" />
<path
   stroke-miterlimit="10"
   d="m 42.997496,75.139848 c 3.695,-0.996 7.798,-2.561 8.092,-4.677 0.142,-1.052 -2.357,-3.289 -2.357,-3.289 0,0 1.438,-3.359 1.19,-4.105 -0.247,-0.743 -1.62,-1.397 -1.62,-1.397 0,0 0.973,-2.658 0.447,-3.445 -0.524,-0.79 -2.387,-0.905 -2.387,-0.905 2.493,-10.807 -6.79,-16.88 -15.077,-17.11 -17.61,-0.486 -21.5770001,17.543 -18.012,25.671 2.9,6.595 6.495,10.892 15.849,16.848"
   id="path8"
   inkscape:connector-curvature="0"
   style="fill:#ffffff;stroke:#231f20;stroke-width:0.87949997;stroke-miterlimit:10" />
<polyline
   stroke-miterlimit="10"
   points="242.986,93.431 238.884,80.747   250.023,87.089 257.355,76.642 261.163,85.038 271.13,82.507 262.92,93.431 "
   id="polyline10"
   style="fill:#58595b;stroke:#231f20;stroke-width:1.75899994;stroke-miterlimit:10"
   transform="translate(-197.3075,-74.876152)" />
<path
   stroke-miterlimit="10"
   d="m 78.956496,78.640848 c 0,0 1.598,-6.601 3.124,-7.895 1.532,-1.293 5.021,-1.073 5.021,-1.073 0.754,-6.28 5.293,-12.088 5.959,-4.235 0.501,5.915 -2.529,9.61 -2.529,9.61 0,0 -3.818,-0.958 -5.428,0.436 -1.61,1.394 -1.415,6.307 -1.415,6.307"
   id="path12"
   inkscape:connector-curvature="0"
   style="fill:#ffffff;stroke:#231f20;stroke-width:0.87949997;stroke-miterlimit:10" />
<path
   stroke-miterlimit="10"
   d="m 30.784496,62.196848 c -0.925,3.132 0.042,4.88 2.812,7.273"
   id="path14"
   inkscape:connector-curvature="0"
   style="fill:none;stroke:#231f20;stroke-width:1.31930006;stroke-miterlimit:10" />
<line
   stroke-miterlimit="10"
   x1="44.158501"
   y1="60.937843"
   x2="39.100502"
   y2="61.82885"
   id="line16"
   style="fill:none;stroke:#231f20;stroke-width:1.31930006;stroke-miterlimit:10" />
<path
   d="m 56.294496,74.579848 c 0.808,0.201 1.214,1.365 0.913,2.6 -0.312,1.237 -1.208,2.077 -2.016,1.877 -0.808,-0.197 -1.214,-1.358 -0.907,-2.596 0.305,-1.238 1.202,-2.078 2.01,-1.881 z"
   id="path18"
   inkscape:connector-curvature="0"
   style="opacity:0.7;fill:#a4a4a4" />
<path
   stroke-miterlimit="10"
   d="m 47.494496,84.708848 c 0,0 8.062,-4.061 11.004,-8.676 2.941,-4.612 3.254,-13.81 3.254,-13.81 l 1.42,-5.134 c 0,0 1.732,-1.966 1.874,-2.906 0.147,-0.946 -0.948,-1.309 -0.948,-1.309 0,0 0.513,-1.691 -0.189,-2.187 -0.701,-0.495 -2.822,0.731 -2.822,0.731 -3.561,1.998 -4.062,1.898 -4.386,2.543 -0.542,1.052 0.695,7.792 0.695,7.792 l 0.23,1.954 c 0,0 -1.256,6.404 -3.908,9.324 -2.652,2.915 -14.416,7.724 -14.416,7.724"
   id="path20"
   inkscape:connector-curvature="0"
   style="fill:#ffffff;stroke:#231f20;stroke-width:0.87949997;stroke-miterlimit:10" />
<path
   stroke-miterlimit="10"
   d="m 64.097496,52.874848 c -2.481,1.536 -2.683,0.94 -3.685,2.7"
   id="path22"
   inkscape:connector-curvature="0"
   style="fill:none;stroke:#231f20;stroke-width:0.43979999;stroke-miterlimit:10" />
<path
   stroke-miterlimit="10"
   d="m 64.080496,50.762848 c -2.476,1.535 -2.075,1.105 -3.69,2.699"
   id="path24"
   inkscape:connector-curvature="0"
   style="fill:none;stroke:#797979;stroke-width:0.43979999;stroke-miterlimit:10" />
<line
   stroke-miterlimit="10"
   x1="92.052483"
   y1="62.010841"
   x2="91.734489"
   y2="63.623848"
   id="line26"
   style="fill:#e6e6e6;stroke:#797979;stroke-width:0.87949997;stroke-miterlimit:10" />
<line
   stroke-miterlimit="10"
   x1="90.874504"
   y1="61.907845"
   x2="90.544487"
   y2="63.52285"
   id="line28"
   style="fill:#e6e6e6;stroke:#797979;stroke-width:0.87949997;stroke-miterlimit:10" />
<line
   stroke-miterlimit="10"
   x1="89.812492"
   y1="62.694847"
   x2="89.482506"
   y2="64.309853"
   id="line30"
   style="fill:#e6e6e6;stroke:#797979;stroke-width:0.87949997;stroke-miterlimit:10" />
<path
   stroke-miterlimit="10"
   d="m 75.667496,84.708848 c 0,0 -4.078,-11.956 -2.004,-15.283 2.075,-3.327 10.126,-6.106 10.126,-6.106 0,0 -3.371,-12.97 -0.377,-12.746 2.994,0.224 8.569,13.995 5.994,14.641 -2.823,0.704 -8.352,6.145 -9.419,8.016 -0.454,0.802 6.442,10.795 6.442,10.795"
   id="path32"
   inkscape:connector-curvature="0"
   style="fill:#ffffff;stroke:#231f20;stroke-width:0.87949997;stroke-miterlimit:10" />
</svg>